<svg xmlns="http://www.w3.org/2000/svg" xmlns:xlink="http://www.w3.org/1999/xlink" xmlns:sketch="http://www.bohemiancoding.com/sketch/ns" width="3179px" height="2096px" viewBox="0 0 3179 2096" version="1.1">
    <!-- Generator: Sketch 3.3.3 (12081) - http://www.bohemiancoding.com/sketch -->
    <title>download (4)-1447863674</title>
    <desc>Created with Sketch.</desc>
    <defs></defs>
    <g id="Page-1" stroke="none" stroke-width="1" fill="none" fill-rule="evenodd" sketch:type="MSPage">
        <g id="download-(4)-1447863674" sketch:type="MSLayerGroup" transform="translate(0.000000, 1.000000)">
            <g id="mall_details" sketch:type="MSShapeGroup">
                <rect id="2130" fill="#FFFEDE" x="1" y="1.5" width="3178" height="2093"></rect>
                <path d="M3011,1733 L3129.5,1733 L3129.5,1410.5 C3070.2,1335 3001,1251.1 3001,1054.5 C3001,857.9 3082,752.4 3129.5,698.5 L3129.5,368 L3010,368" id="2007" stroke="#9A9B9C"></path>
                <path d="M1927,0 L0.5,0 L0.5,2093 L1879,2093 L3118.5,2093 L3118.5,2071.5" id="461" stroke="#000000"></path>
                <path d="M240.5,1813.5 L240.5,1815 L234.5,1815 L234.5,1871.5" id="461" stroke="#9A9B9C"></path>
                <path d="M234.5,1721.5 L234.5,1776 L240.5,1776 L240.5,1777.5" id="461" stroke="#9A9B9C"></path>
                <path d="M241.5,1796.5 L241.5,1818.5" id="461" stroke="#B2C2CE"></path>
                <path d="M241.5,1772.5 L241.5,1795.5" id="461" stroke="#B2C2CE"></path>
                <rect id="2131" stroke="#A588A4" stroke-width="2" fill="#FDFDFD" x="418" y="897.5" width="47" height="50"></rect>
                <path d="M537,984.5 L534,984.5 L537,987.5 L537,984.5" id="461" fill="#8C788C"></path>
                <path d="M485,984.5 L482,984.5 L485,987.5 L485,984.5" id="461" fill="#8C788C"></path>
                <path d="M421,948.5 L418,948.5 L421,951.5 L421,948.5" id="461" fill="#8C788C"></path>
                <rect id="2132" fill="#F8F8FA" x="2253" y="1223.5" width="28" height="43"></rect>
                <path d="M2097,1718.5 L2097,1545.5 L2038,1545.5 L2038,1680.1 L2038,1718.5 L2097,1718.5 Z" id="261" stroke="#CEB1BE" stroke-width="2" fill="#FDFDFD"></path>
                <path d="M2160,1718.5 L2160,1545.5 L2098,1545.5 L2098,1680.1 L2098,1718.5 L2160,1718.5 Z" id="2008" stroke="#CEB1BE" stroke-width="2" fill="#FDFDFD"></path>
                <path d="M2038,1638.5 L2000,1638.5 L2000,1575.5 L2038,1575.5" id="461" stroke="#CEB1BE" stroke-width="2" fill="#FDFDFD"></path>
                <path d="M495.3,1163.3 C495.6,1163.3 495.9,1163 495.9,1162.7 C495.9,1162.4 495.6,1162.1 495.3,1162.1 C495,1162.1 494.7,1162.4 494.7,1162.7 C494.7,1163 495,1163.3 495.3,1163.3 L495.3,1163.3 L495.3,1163.3 Z" id="2009" stroke="#FFFFFF" stroke-width="0.1"></path>
                <path d="M586,1221.5 L413,1221.5 L413,1159.5 L547.6,1159.5 L586,1159.5 L586,1221.5 Z" id="337" stroke="#CEB1BE" stroke-width="2" fill="#FDFDFD"></path>
                <path id="2010" fill="#FFFFFF" d="M578.8,1130.2 L578.8,1130.3 L579.1,1130.2 L579.1,1128.8 L578.8,1128.8 L578.8,1130.2 L578.8,1130.3 L578.8,1130.2 L578.9,1130.2 L578.9,1128.8 L579.1,1128.8 L579.1,1130.2 L578.8,1130.2 L578.9,1130.2 L578.8,1130.2 Z"></path>
                <path id="2011" fill="#FFFFFF" d="M579.1,1130.2 L579.1,1130.2 L579.5,1130.3 L579.5,1130.2 L579.5,1129.9 L579.1,1129.9 L579.1,1130.2 L579.1,1129.9 L579.5,1129.9 L579.5,1130.2 L579.1,1130.2 L579.1,1130.2 Z"></path>
                <path id="2012" fill="#FFFFFF" d="M580.4,1130.2 L580.4,1130.2 L580.8,1130.3 L580.8,1130.2 L580.8,1129.9 L580.4,1129.9 L580.4,1130.2 L580.4,1129.9 L580.8,1129.9 L580.8,1130.2 L580.4,1130.2 L580.4,1130.2 Z"></path>
                <path id="2013" fill="#FFFFFF" d="M580.8,1130.2 L580.8,1130.3 L581.1,1130.3 L581.1,1130.2 L581.1,1128.8 L580.8,1128.8 L580.8,1130.2 L580.8,1130.3 L580.8,1130.2 L580.8,1128.8 L581,1128.8 L581,1130.2 L580.8,1130.2 L580.8,1130.2 Z"></path>
                <path d="M579.7,1131.6 C575,1131.2 571,1128.4 569,1124.4 C568.2,1122.8 567.7,1120.9 567.6,1119 L567.6,1119 C567.7,1121 568.2,1122.8 569,1124.5 C570.9,1128.4 574.9,1131.3 579.7,1131.6 L579.7,1131.6 L579.7,1131.6 Z" id="2014" fill="#FFFFFF"></path>
                <rect id="2133" fill="#FFFFFF" x="579.7" y="1119" width="0.6" height="12.7"></rect>
                <path id="461" fill="#FFFFFF" d="M567.5,1118.2 L580.2,1118.2 L567.5,1118.2"></path>
                <path id="2015" fill="#FFFFFF" d="M579.5,1130.5 L579.5,1130.5 L579.7,1130.5 L579.7,1129.6 L579.5,1129.6 L579.5,1130.5 L579.5,1129.7 L579.6,1129.7 L579.6,1130.5 L579.5,1130.5 L579.5,1130.5 Z"></path>
                <path id="2016" fill="#FFFFFF" d="M580.2,1130.5 L580.2,1130.5 L580.4,1130.5 L580.4,1129.6 L580.2,1129.6 L580.2,1130.5 L580.3,1130.5 L580.3,1129.7 L580.4,1129.7 L580.4,1130.5 L580.2,1130.5 L580.3,1130.5 L580.2,1130.5 Z"></path>
                <path d="M480,1099 L586,1099.1 L586,1157.6 L456,1157.6 L456,1139.5 L480,1139.5 L480,1099.4 L480,1099 Z" id="2017" stroke="#CEB1BE" stroke-width="2" fill="#FDFDFD"></path>
                <path d="M2163,554.5 L2163,615.5 L2204,615.5 L2204,602.5 L2323,602.5 L2323,710.5 L2368,710.5 L2368,558.5 L2330,558.5 L2330,438.5 L2330,378.5 L2279,378.5 L2279,554.5 L2163,554.5 Z" id="2018" fill="#E5E6EB"></path>
                <path id="2019" fill="#FFFFFF" d="M308.1,1344.8 L308.1,1344.8 L307.8,1344.8 L307.8,1343 L308.1,1343 L308.1,1344.8 L308.1,1343 L307.8,1343 L307.7,1343 L307.7,1344.8 L307.8,1344.8 L308.1,1344.8 L308.1,1344.8 Z"></path>
                <path id="2020" fill="#FFFFFF" d="M307.8,1344.8 L307.8,1344.8 L307.3,1344.8 L307.3,1344.4 L307.7,1344.4 L307.7,1344.8 L307.8,1344.8 L307.8,1344.4 L307.3,1344.4 L307.2,1344.4 L307.2,1344.8 L307.3,1344.8 L307.8,1344.8 L307.8,1344.8 Z"></path>
                <path id="2021" fill="#FFFFFF" d="M306.1,1344.8 L306.1,1344.8 L305.7,1344.8 L305.7,1344.4 L306.1,1344.4 L306.1,1344.8 L306.2,1344.8 L306.2,1344.4 L306.1,1344.4 L305.6,1344.4 L305.6,1344.8 L306.1,1344.8 L306.2,1344.8 L306.1,1344.8 Z"></path>
                <path id="2022" fill="#FFFFFF" d="M305.6,1344.8 L305.6,1344.8 L305.3,1344.8 L305.3,1343 L305.6,1343 L305.6,1344.8 L305.7,1344.8 L305.7,1343 L305.6,1343 L305.3,1343 L305.3,1344.8 L305.6,1344.8 L305.7,1344.8 L305.6,1344.8 Z"></path>
                <path d="M307.1,1346.6 C310.1,1346.3 312.9,1345.3 315.3,1343.7 C319.6,1340.8 322.4,1335.9 322.6,1330.4 L322.6,1330.4 C322.4,1335.9 319.6,1340.7 315.3,1343.7 C312.9,1345.3 310.1,1346.3 307.1,1346.6 L307.1,1346.6 L307.1,1346.6 Z" id="2023" fill="#FFFFFF"></path>
                <rect id="2134" fill="#FFFFFF" x="306.3" y="1330.4" width="0.7" height="16.2"></rect>
                <path id="2024" fill="#FFFFFF" d="M307.3,1345.1 L307.3,1345.1 L307.1,1345.1 L307.1,1344.1 L307.2,1344.1 L307.2,1345.1 L307.3,1345.1 L307.3,1344 L307.1,1344 L307,1344 L307,1345.1 L307.1,1345.1 L307.3,1345.1 L307.3,1345.1 Z"></path>
                <path id="2025" fill="#FFFFFF" d="M306.3,1345.1 L306.3,1345.1 L306.2,1345.1 L306.2,1344.1 L306.3,1344.1 L306.3,1345.1 L306.4,1345.1 L306.4,1344 L306.3,1344 L306.1,1344 L306.1,1345.1 L306.1,1345.2 L306.3,1345.2 L306.4,1345.1 L306.3,1345.1 Z"></path>
                <path id="2026" fill="#FFFFFF" d="M337,1342.9 L337,1343 L337.3,1343 L337.3,1344.7 L337,1344.7 L337,1342.9 L337,1343 L337,1342.9 L336.9,1342.9 L336.9,1344.7 L336.9,1344.8 L337,1344.8 L337.3,1344.8 L337.3,1344.7 L337.3,1342.9 L337,1342.9 L336.9,1342.9 L337,1342.9 Z"></path>
                <path d="M337.3,1344.3 L337.3,1344.4 L337.8,1344.4 L337.8,1344.7 L337.3,1344.7 L337.3,1344.3 L337.3,1344.4 L337.3,1344.3 L337.3,1344.7 L337.3,1344.8 L337.8,1344.8 L337.8,1344.7 L337.8,1344.3 L337.3,1344.3 L337.3,1344.3 Z" id="2027" fill="#FFFFFF"></path>
                <path d="M338.9,1344.3 L338.9,1344.4 L339.4,1344.4 L339.4,1344.7 L339,1344.7 L339,1344.3 L338.9,1344.3 L338.9,1344.4 L338.9,1344.3 L338.9,1344.7 L339.4,1344.8 L339.4,1344.7 L339.5,1344.7 L339.5,1344.3 L339.4,1344.3 L338.9,1344.3 L338.9,1344.3 Z" id="2028" fill="#FFFFFF"></path>
                <path id="2029" fill="#FFFFFF" d="M339.4,1342.9 L339.4,1343 L339.7,1342.9 L339.8,1344.7 L339.5,1344.7 L339.5,1342.9 L339.4,1342.9 L339.4,1343 L339.4,1342.9 L339.4,1344.7 L339.4,1344.8 L339.8,1344.8 L339.8,1344.7 L339.8,1342.9 L339.4,1342.9 L339.4,1342.9 Z"></path>
                <path d="M322.5,1330.4 L322.5,1331 C323.1,1339.3 329.7,1345.9 338,1346.6 L338,1346.6 C329.7,1345.9 323.1,1339.3 322.5,1331.1 C322.6,1330.8 322.5,1330.6 322.5,1330.4 L322.5,1330.4 L322.5,1330.4 Z" id="2030" fill="#FFFFFF"></path>
                <rect id="2135" fill="#FFFFFF" x="338" y="1330.4" width="0.7" height="16.2"></rect>
                <path id="2031" fill="#FFFFFF" d="M337.8,1344 L337.8,1344 L338,1344 L338,1345 L337.8,1345 L337.8,1344 L337.8,1345.1 L338,1345.1 L338,1344 L337.8,1344 L337.8,1344 Z"></path>
                <path id="2032" fill="#FFFFFF" d="M338.7,1344 L338.7,1344 L338.9,1344 L338.9,1345 L338.8,1345 L338.8,1344 L338.7,1344 L338.7,1345.1 L338.9,1345.1 L339,1345.1 L339,1344 L338.9,1344 L338.7,1344 L338.7,1344 Z"></path>
                <path d="M408,1384.5 L374,1384.5 L374,1328.5 L408,1328.5" id="461" fill="#E5E6EB"></path>
                <path d="M408,1384.5 L526,1384.5 L526,1328.5 L502.2,1328.5 L459.9,1328.5 L411.1,1328.5 L408,1328.5 L408,1332 L408,1384.5 Z" id="2033" stroke="#CEB1BE" stroke-width="2" fill="#FDFDFD"></path>
                <rect id="2136" fill="#E5E6EB" x="1999" y="1723.5" width="329" height="160"></rect>
                <rect id="2137" fill="#E5E6EB" x="2000" y="211.5" width="366" height="163"></rect>
                <rect id="2138" fill="#E5E6EB" x="1711" y="1781.5" width="282" height="102"></rect>
                <path d="M1319,1481.5 L1770,1481.5 L1770,1719.5 L1993,1719.5 L1993,1778.5 L1711,1778.5 L1711,1540.5 L1319,1540.5 L1319,1481.5 Z" id="2034" fill="#E5E6EB"></path>
                <rect id="2139" stroke="#CEB1BE" stroke-width="2" fill="#FDFDFD" x="1830" y="1652.5" width="163" height="63"></rect>
                <path d="M757,984.5 L474,984.5 L474,948.5 L409,948.5 L409,1043.5 L590,1043.5 L590,1080.5 L738,1080.5 L738,1055.5 L757,1055.5 L757,984.5 Z" id="2035" fill="#E5E6EB"></path>
                <path d="M408,832.5 L408,910.7 L408,948.5 L473,948.5 L473,985.5 L756,985.5 L756,1056.5 L737,1056.5 L737,1081.5 L589,1081.5 L589,1044.5 L408,1044.5 L408,1141.3 L455,1141.2 L455,1142.5 L455,1148.3 L455,1157.6 L455,1158.6 L408,1158.5 L408,1221.5 L348,1221.5 L348,1043 L348,832.5 L408,832.5 Z" id="2036" fill="#E5E6EB"></path>
                <path d="M1324,558.5 L1712,558.5 L1712,315.5 L1994,315.5 L1994,374.5 L1768,374.5 L1768,616.5 L1324,616.5 L1324,558.5 Z" id="2037" fill="#E5E6EB"></path>
                <rect id="2140" stroke="#979797" stroke-width="2" fill="#FDFDFD" x="1829" y="381.5" width="108" height="65"></rect>
                <rect id="2141" stroke="#979797" stroke-width="2" fill="#FDFDFD" x="1942" y="381.5" width="47" height="63"></rect>
                <rect id="2142" stroke="#CEB1BE" stroke-width="2" fill="#FDFDFD" x="2163" y="469.5" width="55" height="82"></rect>
                <rect id="2143" stroke="#CEB1BE" stroke-width="2" fill="#FDFDFD" x="2163" y="383.5" width="55" height="80"></rect>
                <rect id="2144" fill="#E5E6EB" x="1712" y="211.5" width="282" height="99"></rect>
                <rect id="2145" stroke="#CEB1BE" stroke-width="2" fill="#FDFDFD" x="2166" y="1632.5" width="56" height="86"></rect>
                <rect id="2146" stroke="#CEB1BE" stroke-width="2" fill="#FDFDFD" x="415" y="1048.5" width="58" height="63"></rect>
                <path d="M469,928.5 L613,928.5 L613,880.5 L584,880.5 L532.6,880.5 L473,880.5 L469,880.5 L469,928.5 Z" id="2038" stroke="#CEB1BE" stroke-width="2" fill="#FDFDFD"></path>
                <path d="M2273,1712.5 L2273,1601.5 L2227,1601.5 L2227,1623.8 L2227,1663.5 L2227,1709.4 L2227,1712.5 L2273,1712.5 Z" id="2039" stroke="#CEB1BE" stroke-width="2" fill="#FDFDFD"></path>
                <path d="M1823,1660.5 L1823,1546.5 L1777,1546.5 L1777,1569.5 L1777,1610.2 L1777,1657.3 L1777,1660.5 L1823,1660.5 Z" id="2040" stroke="#CEB1BE" stroke-width="2" fill="#FDFDFD"></path>
                <rect id="2147" stroke="#CEB1BE" stroke-width="2" fill="#FDFDFD" x="411" y="832.5" width="111" height="45"></rect>
                <path d="M1831.5,1044 L2023.5,1044 L2023.5,1092.5 L1831.5,1084.5 L1831.5,1044 Z" id="2041" stroke="#3BA6CC" stroke-width="3" fill="#88BDDF"></path>
                <path d="M2125.5,1070 L2274.5,1070 L2274.5,1098.5 L2125.5,1095.2 L2125.5,1070 Z" id="2042" stroke="#3BA6CC" stroke-width="3" fill="#88BDDF"></path>
                <path d="M2376,1067 L2477.5,1067 L2477.5,1106.5 L2374.6,1101.4 L2376,1067 Z" id="2043" stroke="#3BA6CC" stroke-width="3" fill="#88BDDF"></path>
                <path d="M2623.9,1112.3 L2625,1068 L2844.5,1068 L2844.5,1043 L2921.5,1043 L2921.5,1121.5 L2623.9,1112.3" id="461" stroke="#3BA6CC" stroke-width="3" fill="#88BDDF"></path>
                <rect id="2148" fill="#AAAAAA" x="2371" y="228.5" width="638" height="145"></rect>
                <path d="M2371,244.5 L3009.3,299.8 L2371,357.2" id="461" stroke="#B2C2CE"></path>
                <path d="M3021.5,299 L3033,309.5 L3033,288.5" id="461" fill="#9A9B9C"></path>
                <rect id="2149" fill="#AAAAAA" x="2374" y="1723.5" width="636" height="160"></rect>
                <path d="M2374,1742.4 L3010,1803.2 L2374,1866.2" id="461" stroke="#B2C2CE"></path>
                <path d="M3020,1787.5 L3020,1808.5 L3031.5,1798 L3020,1787.5 Z" id="2044" fill="#9A9B9C"></path>
                <path d="M241.5,1296.5 L241.5,1298 L235.5,1298 L235.5,1328.5" id="461" stroke="#9A9B9C"></path>
                <path d="M235.5,1221.5 L235.5,1260 L241.5,1260 L241.5,1261.5" id="461" stroke="#9A9B9C"></path>
                <path d="M242.5,1279.5 L242.5,1301.5" id="461" stroke="#B2C2CE"></path>
                <path d="M242.5,1255.5 L242.5,1278.5" id="461" stroke="#B2C2CE"></path>
                <path d="M1890,1203 L1888.5,1203 L1888.5,1196 L1829,1196" id="461" stroke="#9A9B9C"></path>
                <path d="M1992,1196 L1927.5,1196 L1927.5,1203 L1926,1203" id="461" stroke="#9A9B9C"></path>
                <path d="M1907,1204 L1885,1204" id="461" stroke="#B2C2CE"></path>
                <path d="M1931,1204 L1908,1204" id="461" stroke="#B2C2CE"></path>
                <path d="M1829.5,1060.5 L1829.5,1106 L1823.5,1106 L1823.5,1107.5" id="461" stroke="#9A9B9C"></path>
                <path d="M1829.5,1196.5 L1829.5,1145 L1823.5,1145 L1823.5,1143.5" id="461" stroke="#9A9B9C"></path>
                <path d="M1822.5,1124.5 L1822.5,1102.5" id="461" stroke="#B2C2CE"></path>
                <path d="M1822.5,1148.5 L1822.5,1125.5" id="461" stroke="#B2C2CE"></path>
                <rect id="2150" fill="#9A9B9C" x="1817" y="1038.5" width="13" height="22"></rect>
                <path d="M1829.5,900.5 L1829.5,948 L1823.5,948 L1823.5,949.5" id="461" stroke="#9A9B9C"></path>
                <path d="M1829.5,1038.5 L1829.5,987 L1823.5,987 L1823.5,985.5" id="461" stroke="#9A9B9C"></path>
                <path d="M1822.5,966.5 L1822.5,944.5" id="461" stroke="#B2C2CE"></path>
                <path d="M1822.5,990.5 L1822.5,967.5" id="461" stroke="#B2C2CE"></path>
                <path d="M1985,900 L1925.5,900 L1925.5,894 L1924,894" id="461" stroke="#9A9B9C"></path>
                <path d="M1824,900 L1886.5,900 L1886.5,894 L1888,894" id="461" stroke="#9A9B9C"></path>
                <path d="M1907,893 L1929,893" id="461" stroke="#B2C2CE"></path>
                <path d="M1883,893 L1906,893" id="461" stroke="#B2C2CE"></path>
                <path d="M1884,181.5 L2134.1,181.5 C2185.6,193.5 2181,221.5 2181,221.5 L2181,351.5 L2299,351.5 L2299,228.5 C2307,165.8 2371,166.5 2371,166.5 L3081,166.5 L3081,77.5 L2402.7,77.5 L2166.9,30.5 L1921,30.5" id="2045" fill="#E5E6EB"></path>
                <path d="M3010,231 L3096.8,231 C3114.8,231 3129.2,216.5 3129.2,198.5 C3129.2,180.5 3114.5,166 3096.6,166 L2371,166 C2371,166 2307.5,165.8 2299.5,228.5 L2299.5,351 L2181.5,351 L2181.5,221.5 C2181.5,221.5 2185.6,193 2134.1,181 L1884,181" id="2046" stroke="#9A9B9C"></path>
                <path d="M3089,3 L3128.5,3 L3128.5,29.2 C3122.5,75.9 3081,77 3081,77 L2402.7,77 L2166.9,29.7" id="2047" stroke="#9A9B9C"></path>
                <path d="M1890,1944.5 L2140.1,1944.5 C2192,1944.5 2187,1905.7 2187,1905.7 L2187,1883.4 L2305,1883.4 L2305,1905.7 C2305,1965 2413.3,1954.5 2413.3,1954.5 L3055.9,1952.2 L3054.9,2038.5 L2306.7,2038.8 L2170.6,2066.3 L1888.2,2065.9" id="2048" fill="#E5E6EB"></path>
                <path d="M2170.6,2066.3 L2306.7,2038.8 L3082,2038.5 C3082,2038.5 3118.6,2033.8 3132.6,2066.8 L3137.4,2093 L3118,2093" id="2049" stroke="#9A9B9C"></path>
                <path d="M3011,1868.2 L3097.8,1869.2 C3115.8,1869.2 3121.3,1872.6 3129.3,1888.5 C3137.4,1904.5 3135,1943.5 3104,1952.2 L2413.5,1954.5 C2413.5,1954.5 2305.5,1965 2305.5,1905.7 L2305.5,1883 L2187.5,1883 L2187.5,1905.8 C2187.5,1905.8 2192,1944.1 2140.1,1944.1 L1890,1944.1" id="2050" stroke="#9A9B9C"></path>
                <path d="M2254,383.5 C2254,367.5 2269,367 2269,367 L2269,383.5 L2254,383.5 L2254,383.5 Z" id="2051" fill="#B2C2CE"></path>
                <path d="M2285,378.5 C2285,362.5 2300,362 2300,362 L2300,378.5 L2285,378.5 L2285,378.5 Z" id="2052" fill="#B2C2CE"></path>
                <path d="M2201,382.5 C2201,366.5 2216,366 2216,366 L2216,382.5 L2201,382.5 L2201,382.5 Z" id="2053" fill="#B2C2CE"></path>
                <path d="M2349,715.5 C2349,699.5 2364,699 2364,699 L2364,715.5 L2349,715.5 L2349,715.5 Z" id="2054" fill="#B2C2CE"></path>
                <path d="M2298,606.5 C2298,590.5 2313,590 2313,590 L2313,606.5 L2298,606.5 L2298,606.5 Z" id="2055" fill="#B2C2CE"></path>
                <path d="M1782,1546.5 C1782,1530.5 1797,1530 1797,1530 L1797,1546.5 L1782,1546.5 L1782,1546.5 Z" id="2056" fill="#B2C2CE"></path>
                <path d="M1889,1652.5 C1889,1636.5 1904,1636 1904,1636 L1904,1652.5 L1889,1652.5 L1889,1652.5 Z" id="2057" fill="#B2C2CE"></path>
                <path d="M2254,1712.5 C2254,1728.5 2269,1728.5 2269,1728.5 L2269,1712.5 L2254,1712.5 L2254,1712.5 Z" id="2058" fill="#B2C2CE"></path>
                <path d="M2203,1718.5 C2203,1734.5 2218,1734.5 2218,1734.5 L2218,1718.5 L2203,1718.5 L2203,1718.5 Z" id="2059" fill="#B2C2CE"></path>
                <path d="M1803,554.5 C1803,570.5 1818,570.5 1818,570.5 L1818,554.5 L1803,554.5 L1803,554.5 Z" id="2060" fill="#B2C2CE"></path>
                <path d="M1943,399.5 C1959,399.5 1959.5,414.5 1959.5,414.5 L1943,414.5 L1943,399.5 L1943,399.5 Z" id="2061" fill="#B2C2CE"></path>
                <path d="M1901,445.5 C1901,429.5 1886,428.7 1886,428.7 L1886,445.5 L1901,445.5 L1901,445.5 Z" id="2062" fill="#B2C2CE"></path>
                <path d="M2163,565.5 C2179,565.5 2179.9,580.5 2179.9,580.5 L2163,580.5 L2163,565.5 L2163,565.5 Z" id="2063" fill="#B2C2CE"></path>
                <path d="M2368,580.5 C2352,580.5 2351.1,565.5 2351.1,565.5 L2368,565.5 L2368,580.5 L2368,580.5 Z" id="2064" fill="#B2C2CE"></path>
                <path d="M2329,521.6 C2313,521.6 2312.1,536.5 2312.1,536.5 L2329,536.5 L2329,521.6 L2329,521.6 Z" id="2065" fill="#B2C2CE"></path>
                <path d="M408,1364.6 C392,1364.6 391.1,1379.5 391.1,1379.5 L408,1379.5 L408,1364.6 L408,1364.6 Z" id="2066" fill="#B2C2CE"></path>
                <path d="M453,1049.5 C453,1065.5 468,1066.5 468,1066.5 L468,1049.5 L453,1049.5 L453,1049.5 Z" id="2067" fill="#B2C2CE"></path>
                <path d="M588,881.5 C588,897.5 603,898.5 603,898.5 L603,881.5 L588,881.5 L588,881.5 Z" id="2068" fill="#B2C2CE"></path>
                <path d="M412,853.6 C428,853.6 428.9,838.5 428.9,838.5 L412,838.5 L412,853.6 L412,853.6 Z" id="2069" fill="#B2C2CE"></path>
                <path d="M2133,1545.5 C2133,1561.5 2148,1561.5 2148,1561.5 L2148,1545.5 L2133,1545.5 L2133,1545.5 Z" id="2070" fill="#B2C2CE"></path>
                <path d="M2067,1545.5 C2067,1561.5 2052,1561.5 2052,1561.5 L2052,1545.5 L2067,1545.5 L2067,1545.5 Z" id="2071" fill="#B2C2CE"></path>
                <path d="M457,1157 C473,1157 473.5,1141.5 473.5,1141.5 L457,1141.5 L457,1157 L457,1157 Z" id="2072" fill="#B2C2CE"></path>
                <path d="M445,1160.5 C445,1176.5 430,1176.5 430,1176.5 L430,1160.5 L445,1160.5 L445,1160.5 Z" id="2073" fill="#B2C2CE"></path>
                <rect id="2151" stroke="#A588A4" stroke-width="2" fill="#FDFDFD" x="1947" y="1545.5" width="45" height="49"></rect>
                <rect id="2152" stroke="#A588A4" stroke-width="2" fill="#FDFDFD" x="1947" y="1599.5" width="45" height="49"></rect>
                <rect id="279" stroke="#A588A4" stroke-width="2" fill="#FDFDFD" x="1831" y="1546.5" width="47" height="49"></rect>
                <rect id="2153" stroke="#A588A4" stroke-width="2" fill="#FDFDFD" x="1831" y="1600.5" width="47" height="48"></rect>
                <path d="M1994,264.9 L1994,281.6 L2010.5,281.6 C2010.5,272.6 2003,264.9 1994,264.9 L1994,264.9 L1994,264.9 Z" id="2074" fill="#B2C2CE"></path>
                <path d="M1994,265.6 L1994,248.9 L2010.5,248.9 C2010.5,257.9 2003,265.6 1994,265.6 L1994,265.6 L1994,265.6 Z" id="2075" fill="#B2C2CE"></path>
                <path d="M1994,346.9 L1994,363.6 L2010.5,363.6 C2010.5,354.6 2003,346.9 1994,346.9 L1994,346.9 L1994,346.9 Z" id="2076" fill="#B2C2CE"></path>
                <path d="M1994,347.6 L1994,330.9 L2010.5,330.9 C2010.5,339.9 2003,347.6 1994,347.6 L1994,347.6 L1994,347.6 Z" id="2077" fill="#B2C2CE"></path>
                <path d="M1768,589.6 L1768,572.9 L1751.5,572.9 C1751.5,581.9 1759,589.6 1768,589.6 L1768,589.6 L1768,589.6 Z" id="2078" fill="#B2C2CE"></path>
                <path d="M1768,588.9 L1768,605.6 L1751.5,605.6 C1751.5,596.6 1759,588.9 1768,588.9 L1768,588.9 L1768,588.9 Z" id="2079" fill="#B2C2CE"></path>
                <path d="M1324,588.9 L1324,605.6 L1340.5,605.6 C1340.5,596.6 1333,588.9 1324,588.9 L1324,588.9 L1324,588.9 Z" id="2080" fill="#B2C2CE"></path>
                <path d="M1324,589.6 L1324,572.9 L1340.5,572.9 C1340.5,581.9 1333,589.6 1324,589.6 L1324,589.6 L1324,589.6 Z" id="2081" fill="#B2C2CE"></path>
                <path d="M1319,1509.9 L1319,1526.6 L1335.5,1526.6 C1335.5,1517.6 1328,1509.9 1319,1509.9 L1319,1509.9 L1319,1509.9 Z" id="2082" fill="#B2C2CE"></path>
                <path d="M1319,1510.6 L1319,1493.9 L1335.5,1493.9 C1335.5,1502.9 1328,1510.6 1319,1510.6 L1319,1510.6 L1319,1510.6 Z" id="2083" fill="#B2C2CE"></path>
                <path d="M1770,1509.6 L1770,1492.9 L1753.5,1492.9 C1753.5,1501.9 1761,1509.6 1770,1509.6 L1770,1509.6 L1770,1509.6 Z" id="2084" fill="#B2C2CE"></path>
                <path d="M1770,1508.9 L1770,1525.6 L1753.5,1525.6 C1753.5,1516.6 1761,1508.9 1770,1508.9 L1770,1508.9 L1770,1508.9 Z" id="2085" fill="#B2C2CE"></path>
                <path d="M1993,1830.9 L1993,1847.6 L2009.5,1847.6 C2009.5,1838.6 2002,1830.9 1993,1830.9 L1993,1830.9 L1993,1830.9 Z" id="2086" fill="#B2C2CE"></path>
                <path d="M1993,1831.6 L1993,1814.9 L2009.5,1814.9 C2009.5,1823.9 2002,1831.6 1993,1831.6 L1993,1831.6 L1993,1831.6 Z" id="2087" fill="#B2C2CE"></path>
                <path d="M1993,1748.9 L1993,1765.6 L2009.5,1765.6 C2009.5,1756.6 2002,1748.9 1993,1748.9 L1993,1748.9 L1993,1748.9 Z" id="2088" fill="#B2C2CE"></path>
                <path d="M1993,1749.6 L1993,1732.9 L2009.5,1732.9 C2009.5,1741.9 2002,1749.6 1993,1749.6 L1993,1749.6 L1993,1749.6 Z" id="2089" fill="#B2C2CE"></path>
                <path d="M378.6,832.5 L361.9,832.5 L361.9,849 C370.9,849 378.6,841.5 378.6,832.5 L378.6,832.5 L378.6,832.5 Z" id="2090" fill="#B2C2CE"></path>
                <path d="M377.9,832.5 L394.6,832.5 L394.6,849 C385.6,849 377.9,841.5 377.9,832.5 L377.9,832.5 L377.9,832.5 Z" id="2091" fill="#B2C2CE"></path>
                <path d="M377.9,1221.5 L394.6,1221.5 L394.6,1205 C385.6,1205 377.9,1212.5 377.9,1221.5 L377.9,1221.5 L377.9,1221.5 Z" id="255" fill="#B2C2CE"></path>
                <path d="M378.6,1221.5 L361.9,1221.5 L361.9,1205 C370.9,1205 378.6,1212.5 378.6,1221.5 L378.6,1221.5 L378.6,1221.5 Z" id="2092" fill="#B2C2CE"></path>
                <path d="M757,1018.9 L757,1035.6 L773.5,1035.6 C773.5,1026.6 766,1018.9 757,1018.9 L757,1018.9 L757,1018.9 Z" id="2093" fill="#B2C2CE"></path>
                <path d="M757,1019.6 L757,1002.9 L773.5,1002.9 C773.5,1011.9 766,1019.6 757,1019.6 L757,1019.6 L757,1019.6 Z" id="2094" fill="#B2C2CE"></path>
                <path d="M1768,504 L1662.3,616.5" id="461" stroke="#EFEFEF" stroke-width="2"></path>
                <path d="M1818,316 L1712.3,428.5" id="461" stroke="#EFEFEF" stroke-width="2"></path>
                <path d="M1895,316 L1840,374.5" id="461" stroke="#EFEFEF" stroke-width="2"></path>
                <path d="M1641,558 L1586,616.5" id="461" stroke="#EFEFEF" stroke-width="2"></path>
                <path d="M1495,558 L1440,616.5" id="461" stroke="#EFEFEF" stroke-width="2"></path>
                <path d="M1994,211 L1884.7,310.5" id="461" stroke="#EFEFEF" stroke-width="2"></path>
                <path d="M1785,211 L1712,277.4" id="461" stroke="#EFEFEF" stroke-width="2"></path>
                <path d="M2330,379 L2279,436.9" id="461" stroke="#EFEFEF" stroke-width="2"></path>
                <path d="M2328,432.4 L2279,488.9" id="461" stroke="#EFEFEF" stroke-width="2"></path>
                <path d="M2328,537.4 L2272.1,601.8" id="461" stroke="#EFEFEF" stroke-width="2"></path>
                <path d="M2216.2,554.4 L2163.8,614.5" id="461" stroke="#EFEFEF" stroke-width="2"></path>
                <path d="M2367,582.4 L2322.5,636.5" id="461" stroke="#EFEFEF" stroke-width="2"></path>
                <path d="M1768,435 L1713,493.5" id="461" stroke="#EFEFEF" stroke-width="2"></path>
                <path d="M407.6,899.5 L349,961.9" id="461" stroke="#EFEFEF" stroke-width="2"></path>
                <path d="M1568,559 L1513,617.5" id="461" stroke="#EFEFEF" stroke-width="2"></path>
                <path d="M1422,559 L1367,617.5" id="461" stroke="#EFEFEF" stroke-width="2"></path>
                <path d="M1928,211 L1818.7,310.5" id="461" stroke="#EFEFEF" stroke-width="2"></path>
                <path d="M2329,488.4 L2280,544.9" id="461" stroke="#EFEFEF" stroke-width="2"></path>
                <path d="M2367,643.4 L2322.5,697.5" id="461" stroke="#EFEFEF" stroke-width="2"></path>
                <path d="M2260,554.4 L2218.2,602.5" id="461" stroke="#EFEFEF" stroke-width="2"></path>
                <path d="M1966,316 L1911,374.5" id="461" stroke="#EFEFEF" stroke-width="2"></path>
                <path d="M424.7,949.7 L349,1030.7" id="461" stroke="#EFEFEF" stroke-width="2"></path>
                <path d="M473,972 L348,1104.6" id="461" stroke="#EFEFEF" stroke-width="2"></path>
                <path d="M683,985 L594.3,1080.5" id="461" stroke="#EFEFEF" stroke-width="2"></path>
                <path d="M536,985 L481,1043.5" id="461" stroke="#EFEFEF" stroke-width="2"></path>
                <path d="M610,985 L555,1043.5" id="461" stroke="#EFEFEF" stroke-width="2"></path>
                <path d="M756,985 L667,1080.5" id="461" stroke="#EFEFEF" stroke-width="2"></path>
                <path d="M1769,1594.5 L1663.3,1482" id="461" stroke="#EFEFEF" stroke-width="2"></path>
                <path d="M1819,1778.5 L1711.3,1663.5" id="461" stroke="#EFEFEF" stroke-width="2"></path>
                <path d="M1896,1778.5 L1841,1720" id="461" stroke="#EFEFEF" stroke-width="2"></path>
                <path d="M1642,1540.5 L1587,1482" id="461" stroke="#EFEFEF" stroke-width="2"></path>
                <path d="M1496,1540.5 L1441,1482" id="461" stroke="#EFEFEF" stroke-width="2"></path>
                <path d="M1769,1661.5 L1711.3,1600.2" id="461" stroke="#EFEFEF" stroke-width="2"></path>
                <path d="M1569,1539.5 L1514,1481" id="461" stroke="#EFEFEF" stroke-width="2"></path>
                <path d="M1423,1539.5 L1368,1481" id="461" stroke="#EFEFEF" stroke-width="2"></path>
                <path d="M1967,1778.5 L1912,1720" id="461" stroke="#EFEFEF" stroke-width="2"></path>
                <path d="M1855,211 L1745.7,310.5" id="461" stroke="#EFEFEF" stroke-width="2"></path>
                <path d="M1710,1782 L1819.3,1881.5" id="461" stroke="#EFEFEF" stroke-width="2"></path>
                <path d="M1919,1782 L1992,1848.4" id="461" stroke="#EFEFEF" stroke-width="2"></path>
                <path d="M1776,1782 L1885.3,1881.5" id="461" stroke="#EFEFEF" stroke-width="2"></path>
                <path d="M1849,1782 L1958.3,1881.5" id="461" stroke="#EFEFEF" stroke-width="2"></path>
                <path d="M2153,595.5 C2169,595.5 2169.9,610.5 2169.9,610.5 L2153,610.5 L2153,595.5 L2153,595.5 Z" id="2095" fill="#B2C2CE"></path>
                <path d="M2201,552.5 C2201,568.5 2216,568.5 2216,568.5 L2216,552.5 L2201,552.5 L2201,552.5 Z" id="2096" fill="#B2C2CE"></path>
                <path d="M1906.6,1715.5 L1889.9,1715.5 L1889.9,1732 C1898.9,1732 1906.6,1724.5 1906.6,1715.5 L1906.6,1715.5 L1906.6,1715.5 Z" id="2097" fill="#B2C2CE"></path>
                <path d="M1905.9,1715.5 L1922.6,1715.5 L1922.6,1732 C1913.6,1732 1905.9,1724.5 1905.9,1715.5 L1905.9,1715.5 L1905.9,1715.5 Z" id="2098" fill="#B2C2CE"></path>
                <path d="M1911.9,374.5 L1928.6,374.5 L1928.6,358 C1919.6,358 1911.9,365.5 1911.9,374.5 L1911.9,374.5 L1911.9,374.5 Z" id="2099" fill="#B2C2CE"></path>
                <path d="M1912.6,374.5 L1895.9,374.5 L1895.9,358 C1904.9,358 1912.6,365.5 1912.6,374.5 L1912.6,374.5 L1912.6,374.5 Z" id="2100" fill="#B2C2CE"></path>
                <path d="M1736.9,310.5 L1753.6,310.5 L1753.6,294 C1744.6,294 1736.9,301.5 1736.9,310.5 L1736.9,310.5 L1736.9,310.5 Z" id="2101" fill="#B2C2CE"></path>
                <path d="M1737.6,310.5 L1720.9,310.5 L1720.9,294 C1729.9,294 1737.6,301.5 1737.6,310.5 L1737.6,310.5 L1737.6,310.5 Z" id="2102" fill="#B2C2CE"></path>
                <path d="M1739.6,1781.5 L1722.9,1781.5 L1722.9,1798 C1731.9,1798 1739.6,1790.5 1739.6,1781.5 L1739.6,1781.5 L1739.6,1781.5 Z" id="2103" fill="#B2C2CE"></path>
                <path d="M1738.9,1781.5 L1755.6,1781.5 L1755.6,1798 C1746.6,1798 1738.9,1790.5 1738.9,1781.5 L1738.9,1781.5 L1738.9,1781.5 Z" id="2104" fill="#B2C2CE"></path>
                <path d="M406.6,833.5 L349.3,894.5" id="461" stroke="#EFEFEF" stroke-width="2"></path>
                <path d="M407.6,1109.5 L349,1171.9" id="461" stroke="#EFEFEF" stroke-width="2"></path>
                <path d="M407.6,1177.5 L366.3,1221.5" id="461" stroke="#EFEFEF" stroke-width="2"></path>
                <rect id="2154" fill="#B2C2CE" x="998" y="1056.5" width="136" height="27"></rect>
                <path d="M1128.2,1071 C1128.1,1071.1 1127.9,1071.2 1127.7,1071.2 L1118.8,1071.1 L1121.4,1072.8 C1121.6,1072.9 1121.7,1073.1 1121.7,1073.2 C1121.7,1073.4 1121.7,1073.6 1121.6,1073.7 L1121.5,1073.8 C1121.4,1073.9 1121.2,1074 1121,1074 C1120.9,1074 1120.7,1074 1120.6,1073.9 L1115.9,1070.9 C1115.7,1070.8 1115.6,1070.5 1115.6,1070.3 C1115.6,1070.1 1115.7,1069.8 1115.9,1069.7 L1120.7,1066.7 C1121,1066.5 1121.5,1066.6 1121.7,1066.9 C1121.9,1067.2 1121.8,1067.7 1121.5,1067.9 L1118.8,1069.6 L1127.7,1069.7 C1127.9,1069.7 1128.1,1069.8 1128.2,1069.9 C1128.3,1070 1128.4,1070.2 1128.4,1070.4 C1128.4,1070.7 1128.3,1070.9 1128.2,1071 L1128.2,1071 Z" id="2105" fill="#FFFFFF"></path>
                <rect id="282" fill="#B2C2CE" x="998" y="1027.5" width="136" height="27"></rect>
                <path d="M1004.3,1040.5 C1004.4,1040.4 1004.6,1040.3 1004.8,1040.3 L1013.7,1040.4 L1011.1,1038.7 C1010.9,1038.6 1010.8,1038.4 1010.8,1038.3 C1010.8,1038.1 1010.8,1037.9 1010.9,1037.8 L1011,1037.7 C1011.1,1037.6 1011.3,1037.5 1011.5,1037.5 C1011.6,1037.5 1011.8,1037.5 1011.9,1037.6 L1016.6,1040.6 C1016.8,1040.7 1016.9,1041 1016.9,1041.2 C1016.9,1041.4 1016.8,1041.7 1016.6,1041.8 L1011.8,1044.8 C1011.5,1045 1011,1044.9 1010.8,1044.6 C1010.6,1044.3 1010.7,1043.8 1011,1043.6 L1013.7,1041.9 L1004.8,1041.8 C1004.6,1041.8 1004.4,1041.7 1004.3,1041.6 C1004.2,1041.5 1004.1,1041.3 1004.1,1041.1 C1004.1,1040.8 1004.2,1040.6 1004.3,1040.5 L1004.3,1040.5 Z" id="2106" fill="#FFFFFF"></path>
                <path d="M241.5,797.5 L241.5,799 L235.5,799 L235.5,831.5" id="461" stroke="#9A9B9C"></path>
                <path d="M235.5,721.5 L235.5,760 L241.5,760 L241.5,761.5" id="461" stroke="#9A9B9C"></path>
                <path d="M242.5,780.5 L242.5,802.5" id="461" stroke="#B2C2CE"></path>
                <path d="M242.5,756.5 L242.5,779.5" id="461" stroke="#B2C2CE"></path>
                <path d="M234.5,373.5 L234.5,315 L240.5,315 L240.5,313.5" id="461" stroke="#9A9B9C"></path>
                <path d="M234.5,223.5 L234.5,276 L240.5,276 L240.5,277.5" id="461" stroke="#9A9B9C"></path>
                <path d="M241.5,296.5 L241.5,318.5" id="461" stroke="#B2C2CE"></path>
                <path d="M241.5,272.5 L241.5,295.5" id="461" stroke="#B2C2CE"></path>
            </g>
            <path d="M2329.5,382 L2329.5,556 L2754.5,556 L2754.5,382 L2329.5,382 L2329.5,382 Z M2754,519.6 C2745,519.6 2737.5,511.9 2737.5,503 L2754,503 L2754,519.6 L2754,519.6 Z" id="248" fill="#D0D0CF" sketch:type="MSShapeGroup"></path>
            <path d="M2739.3,664.1 L2755.4,664.1 L2754,562.5 L2368,562.5 L2368,708.5 L2756,708.5 L2755.6,680.7 C2746.8,680.6 2739.4,672.9 2739.3,664.1 L2739.3,664.1 Z" id="244" fill="#D0D0CF" sketch:type="MSShapeGroup"></path>
            <path d="M2323,714.5 L2323,886.7 L2358.5,885.3 C2358.8,876.8 2366,869.7 2374.6,869.4 L2375.3,884.7 L2639.8,874.2 C2640.2,865.8 2647.3,858.8 2655.7,858.5 L2656.1,873.6 L2755,869.7 L2755,714.7 L2323,714.7 L2323,714.5 Z" id="242" fill="#D0D0CF" sketch:type="MSShapeGroup"></path>
            <path d="M2202.5,607 L2202.5,620 L2167,620 L2158.5,620 L2158.5,894.3 L2316.5,887.7 L2316.5,607 L2202.5,607 Z M2195.7,892.5 C2195.4,883.5 2202.9,875.8 2211.8,875.5 L2212.4,892 L2195.7,892.5 Z" id="238" fill="#D0D0CF" sketch:type="MSShapeGroup"></path>
            <path d="M1660,623.5 L1660,903.5 L1745.5,903.5 C1745.8,894.5 1753.3,887.5 1762.1,887.5 L1762.1,903.5 L1823,903.5 L1823,623.5 L1660,623.5 L1660,623.5 Z" id="2107" fill="#D0D0CF" sketch:type="MSShapeGroup"></path>
            <path d="M1485,623.5 L1485,903.5 L1574.5,903.5 C1574.8,894.5 1582.3,887.5 1591.1,887.5 L1591.1,903.5 L1654,903.5 L1654,623.5 L1485,623.5 L1485,623.5 Z" id="68" fill="#D0D0CF" sketch:type="MSShapeGroup"></path>
            <path d="M1313,723.5 L1313,903.5 L1410.5,903.5 C1410.8,894.5 1418.3,887.5 1427.1,887.5 L1427.1,903.5 L1480,903.5 L1480,723.5 L1313,723.5 L1313,723.5 Z" id="2108" fill="#D0D0CF" sketch:type="MSShapeGroup"></path>
            <path d="M1313,623.5 L1313,645 C1322,645.3 1329,652.8 1329,661.6 L1313,661.6 L1313,719.5 L1480,719.5 L1480,623.5 L1313,623.5 L1313,623.5 Z" id="66" fill="#D0D0CF" sketch:type="MSShapeGroup"></path>
            <path d="M1314,214.5 L1314,300 C1323,300.3 1330,307.8 1330,316.6 L1314,316.6 L1314,376.5 L1703,376.5 L1703,214.5 L1314,214.5 L1314,214.5 Z" id="2109" fill="#D0D0CF" sketch:type="MSShapeGroup"></path>
            <path d="M1314,382.5 L1314,465 C1323,465.3 1330,472.8 1330,481.6 L1314,481.6 L1314,556.5 L1703,556.5 L1703,382.5 L1314,382.5 L1314,382.5 Z" id="54" fill="#D0D0CF" sketch:type="MSShapeGroup"></path>
            <path d="M1136,10.5 L1136,222.5 L1227.4,222.5 C1227.4,213.5 1235.1,206 1244,206 L1244,222.5 L1312.9,222.5 L1312.9,203.5 L1652.9,203.5 L1652.9,10.5 L1136,10.5 L1136,10.5 Z" id="53" fill="#D0D0CF" sketch:type="MSShapeGroup"></path>
            <path d="M912,10.5 L912,222.5 L1023.4,222.5 C1023.4,213.5 1031.1,206 1040,206 L1040,222.5 L1130.9,222.5 L1130.9,10.5 L912,10.5 L912,10.5 Z" id="52" fill="#D0D0CF" sketch:type="MSShapeGroup"></path>
            <path d="M753,10.5 L753,222.5 L832.4,222.5 C832.4,213.5 840.1,206 849,206 L849,222.5 L906,222.5 L906,10.5 L753,10.5 L753,10.5 Z" id="2110" fill="#D0D0CF" sketch:type="MSShapeGroup"></path>
            <path d="M662,48.5 L662,222.5 L665.4,222.5 C665.4,213.5 673.1,206 682,206 L682,222.5 L749,222.5 L749,48.5 L662,48.5 L662,48.5 Z" id="51" stroke="#C1C1C1" stroke-width="2" fill="#D0D0CF" sketch:type="MSShapeGroup"></path>
            <path d="M412,10.5 L412,222.5 L499.4,222.5 C499.4,213.5 507.1,206 516,206 L516,222.5 L575,222.5 L575,10.5 L412,10.5 L412,10.5 Z" id="2111" fill="#D0D0CF" sketch:type="MSShapeGroup"></path>
            <path d="M333,10.5 L333,222.5 L370.4,222.5 C370.4,213.5 378.1,206 387,206 L387,222.5 L407,222.5 L407,10.5 L333,10.5 L333,10.5 Z" id="50" fill="#D0D0CF" sketch:type="MSShapeGroup"></path>
            <path d="M254,10.5 L254,222.5 L295.4,222.5 C295.4,213.5 303.1,206 312,206 L312,222.5 L328,222.5 L328,10.5 L254,10.5 L254,10.5 Z" id="2112" fill="#D0D0CF" sketch:type="MSShapeGroup"></path>
            <path d="M72.5,12 L72.5,132 L4.5,132 L4.5,224 L250.5,224 L250.5,12 L72.5,12 L72.5,12 Z M153.4,223.5 C153.4,214.5 161.1,207 170,207 L170,223.5 L153.4,223.5 L153.4,223.5 Z" id="49" fill="#D0D0CF" sketch:type="MSShapeGroup"></path>
            <path d="M922,545.5 L922,721.5 L1024.4,721.5 C1024.4,712.5 1032.1,705 1041,705 L1041,721.5 L1132.9,721.5 L1132.9,545.5 L922,545.5 L922,545.5 Z" id="59" fill="#D0D0CF" sketch:type="MSShapeGroup"></path>
            <path d="M580,543.5 L580,721.5 L666.4,721.5 C666.4,712.5 674.1,705 683,705 L683,721.5 L750,721.5 L750,543.5 L580,543.5 L580,543.5 Z" id="2113" fill="#D0D0CF" sketch:type="MSShapeGroup"></path>
            <path d="M425,543.5 L425,721.5 L504.4,721.5 C504.4,712.5 512.1,705 521,705 L521,721.5 L575,721.5 L575,543.5 L425,543.5 L425,543.5 Z" id="56" fill="#D0D0CF" sketch:type="MSShapeGroup"></path>
            <path d="M1026.1,372.5 C1026.1,381.5 1018.4,389 1009.5,389 L1009.5,372.5 L922,372.5 L922,539.5 L1133,539.5 L1133,372.5 L1026.1,372.5 L1026.1,372.5 Z" id="2114" fill="#D0D0CF" sketch:type="MSShapeGroup"></path>
            <path d="M670.1,373.5 C670.1,382.5 662.4,390 653.5,390 L653.5,373.5 L579,373.5 L579,538.5 L749,538.5 L749,373.5 L670.1,373.5 L670.1,373.5 Z" id="57" fill="#D0D0CF" sketch:type="MSShapeGroup"></path>
            <path d="M503.1,373.5 C503.1,382.5 495.4,390 486.5,390 L486.5,373.5 L425,373.5 L425,538.5 L574,538.5 L574,373.5 L503.1,373.5 L503.1,373.5 Z" id="2115" fill="#D0D0CF" sketch:type="MSShapeGroup"></path>
            <path d="M335.1,373.5 C335.1,382.5 327.4,390 318.5,390 L318.5,373.5 L234,373.5 L234,453.9 C243,453.9 250.5,461.6 250.5,470.5 L234,470.5 L234,633.8 C243,633.8 250.5,641.5 250.5,650.4 L234,650.4 L234,721.3 L332.4,721.3 C332.4,712.3 340.1,704.8 349,704.8 L349,721.3 L420,721.3 L420,373.3 L335.1,373.3 L335.1,373.5 Z" id="55" fill="#D0D0CF" sketch:type="MSShapeGroup"></path>
            <path d="M266.1,831.5 C266.1,840.5 258.4,848 249.5,848 L249.5,831.5 L235,831.5 L235,961.9 C244,961.9 251.4,969.6 251.4,978.5 L235,978.5 L235,1040.4 L295,1040.4 L295,1011.4 L346,1011.4 L346,831.4 L266.1,831.4 L266.1,831.5 Z" id="2116" fill="#D0D0CF" sketch:type="MSShapeGroup"></path>
            <path d="M235,1044.5 L235,1132.9 C244,1132.9 251.5,1140.6 251.5,1149.5 L235,1149.5 L235,1221.4 L291.4,1221.4 C291.4,1212.4 299.1,1204.9 308,1204.9 L308,1221.4 L346,1221.4 L346,1044.4 L235,1044.4 L235,1044.5 Z" id="2117" fill="#D0D0CF" sketch:type="MSShapeGroup"></path>
            <path d="M1750.1,1196.5 C1750.1,1205.5 1742.4,1213 1733.5,1213 L1733.5,1196.5 L1578.2,1196.5 C1578.2,1205.5 1570.5,1213 1561.6,1213 L1561.6,1196.5 L1404.3,1196.5 C1404.3,1205.5 1396.6,1213 1387.7,1213 L1387.7,1196.5 L1318,1196.5 L1318,1433.9 C1327,1433.9 1334.5,1441.6 1334.5,1450.5 L1318,1450.5 L1318,1478.4 L1831,1478.4 L1831,1196.4 L1750.1,1196.4 L1750.1,1196.5 Z" id="336" fill="#D0D0CF" sketch:type="MSShapeGroup"></path>
            <path d="M2187.7,1209.6 C2187,1218.5 2178.8,1225.4 2169.9,1224.7 L2171.1,1208.3 L2160,1207.4 L2160,1381.4 L2321,1381.4 L2321,1219.8 L2187.7,1209.6 L2187.7,1209.6 Z" id="83" fill="#D0D0CF" sketch:type="MSShapeGroup"></path>
            <path d="M2768,1410.1 C2759,1410.1 2751.6,1402.4 2751.6,1393.5 L2767.7,1393.5 L2767.6,1386.6 L2156,1386.6 L2156,1207.6 L2020.6,1197.7 C2020,1206.7 2011.8,1213.6 2002.9,1213 L2004,1196.6 L2010.2,1197 L1992,1195.7 L1992,1512.7 L2155,1512.7 L2155,1543.7 L2164,1543.7 L2164,1628 L2220.3,1627.6 L2220,1543.7 L2280,1543.7 L2280.7,1719.3 L2774,1715.4 L2768,1410.1 L2768,1410.1 Z" id="85" fill="#D0D0CF" sketch:type="MSShapeGroup"></path>
            <path d="M1318,1544.5 L1318,1619.4 C1327,1619.4 1334.5,1627.1 1334.5,1636 L1318,1636 L1318,1717.4 L1708,1717.4 L1708,1544.4 L1318,1544.4 L1318,1544.5 Z" id="2118" fill="#D0D0CF" sketch:type="MSShapeGroup"></path>
            <path d="M1318,1723.5 L1318,1791.4 C1327,1791.4 1334.5,1799.1 1334.5,1808 L1318,1808 L1318,1878.4 L1708,1878.4 L1708,1723.4 L1318,1723.4 L1318,1723.5 Z" id="2119" fill="#D0D0CF" sketch:type="MSShapeGroup"></path>
            <path d="M1314,1886.5 L1314,1871.5 L1226.1,1871.5 C1226.1,1880.5 1218.4,1888 1209.5,1888 L1209.5,1871.5 L1138,1871.5 L1138,2086.5 L1654,2086.5 L1654,1886.5 L1314,1886.5 L1314,1886.5 Z" id="2120" fill="#D0D0CF" sketch:type="MSShapeGroup"></path>
            <path d="M1028.1,1871.5 C1028.1,1880.5 1020.4,1888 1011.5,1888 L1011.5,1871.5 L923,1871.5 L923,2086.5 L1132,2086.5 L1132,1871.5 L1028.1,1871.5 L1028.1,1871.5 Z" id="76" fill="#D0D0CF" sketch:type="MSShapeGroup"></path>
            <path d="M835.1,1871.5 C835.1,1880.5 827.4,1888 818.5,1888 L818.5,1871.5 L754,1871.5 L754,2086.5 L917,2086.5 L917,1871.5 L835.1,1871.5 L835.1,1871.5 Z" id="2121" fill="#D0D0CF" sketch:type="MSShapeGroup"></path>
            <path d="M666.1,1871.5 C666.1,1880.5 658.4,1888 649.5,1888 L649.5,1871.5 L580,1871.5 L580,2049.5 L749,2049.5 L749,1871.5 L666.1,1871.5 L666.1,1871.5 Z" id="78" fill="#D0D0CF" sketch:type="MSShapeGroup"></path>
            <path d="M507.1,1871.5 C507.1,1880.5 499.4,1888 490.5,1888 L490.5,1871.5 L414,1871.5 L414,2086.5 L575,2086.5 L575,1871.5 L507.1,1871.5 L507.1,1871.5 Z" id="79" fill="#D0D0CF" sketch:type="MSShapeGroup"></path>
            <path d="M290.1,1871.5 C290.1,1880.5 282.4,1888 273.5,1888 L273.5,1871.5 L249,1871.5 L249,2086.5 L326,2086.5 L326,1871.5 L290.1,1871.5 L290.1,1871.5 Z" id="2122" fill="#D0D0CF" sketch:type="MSShapeGroup"></path>
            <path d="M373.1,1871.5 C373.1,1880.5 365.4,1888 356.5,1888 L356.5,1871.5 L331,1871.5 L331,2086.5 L408,2086.5 L408,1871.5 L373.1,1871.5 L373.1,1871.5 Z" id="82" stroke="#C1C1C1" stroke-width="2" fill="#D0D0CF" sketch:type="MSShapeGroup"></path>
            <path d="M154.1,1871.5 C154.1,1880.5 146.4,1888 137.5,1888 L137.5,1871.5 L8,1871.5 L8,1964.5 L78,1964.5 L78,2084.5 L245,2084.6 L245,1871.5 L154.1,1871.5 L154.1,1871.5 Z" id="2123" fill="#D0D0CF" sketch:type="MSShapeGroup"></path>
            <path d="M371,1388.5 L371,1328.5 L326.1,1328.5 C326.1,1337.5 318.4,1345 309.5,1345 L309.5,1328.5 L234,1328.5 L234,1459.4 C243,1459.4 250.5,1467.1 250.5,1476 L234,1476 L234,1537.4 L418,1537.4 L418,1388.4 L371,1388.4 L371,1388.5 Z" id="69" fill="#D0D0CF" sketch:type="MSShapeGroup"></path>
            <path d="M667.1,1375.5 C667.1,1384.5 659.4,1392 650.5,1392 L650.5,1375.5 L590,1375.5 L590,1388.5 L424,1388.5 L424,1538.5 L747,1538.5 L747,1375.5 L667.1,1375.5 L667.1,1375.5 Z" id="72" fill="#D0D0CF" sketch:type="MSShapeGroup"></path>
            <path d="M834.1,1375.5 C834.1,1384.5 826.4,1392 817.5,1392 L817.5,1375.5 L752,1375.5 L752,1538.5 L917,1538.5 L917.5,1375.5 L834.1,1375.5 L834.1,1375.5 Z" id="2124" fill="#D0D0CF" sketch:type="MSShapeGroup"></path>
            <path d="M1027.1,1375.5 C1027.1,1384.5 1019.4,1392 1010.5,1392 L1010.5,1375.5 L922,1375.5 L922,1538.5 L1132,1538.5 L1132,1375.5 L1027.1,1375.5 L1027.1,1375.5 Z" id="75" fill="#D0D0CF" sketch:type="MSShapeGroup"></path>
            <path d="M923,1543.5 L923,1721.5 L1025,1721.5 C1025,1712.5 1032,1705 1040.1,1705 L1040.1,1721.5 L1133,1721.5 L1133,1543.5 L923,1543.5 L923,1543.5 Z" id="2125" fill="#D0D0CF" sketch:type="MSShapeGroup"></path>
            <path d="M753,1543.5 L753,1721.5 L831.4,1721.5 C831.4,1712.5 839.1,1705 848,1705 L848,1721.5 L917,1721.5 L917,1543.5 L753,1543.5 L753,1543.5 Z" id="74" fill="#D0D0CF" sketch:type="MSShapeGroup"></path>
            <path d="M580,1543.5 L580,1721.5 L665.4,1721.5 C665.4,1712.5 673.1,1705 682,1705 L682,1721.5 L747,1721.5 L747,1543.5 L580,1543.5 L580,1543.5 Z" id="2126" stroke="#C1C1C1" stroke-width="2" fill="#D0D0CF" sketch:type="MSShapeGroup"></path>
            <path d="M234,1543.5 L234,1629.9 C243,1629.9 250.5,1637.6 250.5,1646.5 L234,1646.5 L234,1721.4 L328.4,1721.4 C328.4,1712.4 336.1,1704.9 345,1704.9 L345,1721.4 L418,1721.4 L418,1543.4 L234,1543.4 L234,1543.5 Z" id="2127" fill="#D0D0CF" sketch:type="MSShapeGroup"></path>
            <path d="M425,1543 L425,1721.5 L505.4,1721.5 C505.4,1712.5 513.1,1705 522,1705 L522,1721.5 L574,1721.5 L574,1543.5 L425,1543 L425,1543 Z" id="71" fill="#D0D0CF" sketch:type="MSShapeGroup"></path>
            <path d="M1983,591.5 L1983,902.9 L2018.5,901.2 C2018.3,892.3 2025.8,884.8 2034.6,884.4 L2035.1,900.4 L2153,894.5 L2153,591.5 L1983,591.5 L1983,591.5 Z" id="235" fill="#D0D0CF" sketch:type="MSShapeGroup"></path>
            <path d="M580,48.5 L580,222.5 L583.4,222.5 C583.4,213.5 591.1,206 600,206 L600,222.5 L658,222.5 L658,48.5 L580,48.5 L580,48.5 Z" id="2128" fill="#D0D0CF" sketch:type="MSShapeGroup"></path>
            <path d="M1136,222.5 L1139,222.5" id="461" opacity="0.9" fill="#6DB2A6" sketch:type="MSShapeGroup"></path>
            <path d="M835,372.5 C834.5,381 827,388 818.4,388 L818.4,372.5 L754,372.5 L754,721.5 L834.4,721.5 C834.4,712.5 842.1,705 851,705 L851,721.5 L917,721.5 L917,372.5 L835,372.5 L835,372.5 Z" id="58" fill="#D0D0CF" sketch:type="MSShapeGroup"></path>
            <path d="M743,1058.5 L743,1084.5 L587,1084.5 L587,1223.5 L758,1223.5 L758,1058.5 L743,1058.5 L743,1058.5 Z M663.4,1221.5 C663.4,1212.5 671.1,1205 680,1205 L680,1221.5 L663.4,1221.5 L663.4,1221.5 Z" id="64" fill="#D0D0CF" sketch:type="MSShapeGroup"></path>
            <path d="M687.1,878.5 C687.1,887.5 679.4,895 670.5,895 L670.5,878.5 L616,878.5 L616,932.5 L588,932.5 L588,980.5 L757,980.5 L757,878.5 L687.1,878.5 L687.1,878.5 Z" id="61" fill="#D0D0CF" sketch:type="MSShapeGroup"></path>
            <rect id="277" stroke="#CEB1BE" stroke-width="2" fill="#FDFDFD" sketch:type="MSShapeGroup" x="1831" y="505.5" width="45" height="47"></rect>
            <rect id="2155" stroke="#CEB1BE" stroke-width="2" fill="#FDFDFD" sketch:type="MSShapeGroup" x="1948" y="454.5" width="41" height="47"></rect>
            <rect id="2156" stroke="#CEB1BE" stroke-width="2" fill="#FDFDFD" sketch:type="MSShapeGroup" x="1831" y="453.5" width="45" height="46"></rect>
            <rect id="2157" stroke="#CEB1BE" stroke-width="2" fill="#FDFDFD" sketch:type="MSShapeGroup" x="1948" y="507.5" width="41" height="47"></rect>
            <rect id="2158" stroke="#CEB1BE" stroke-width="2" fill="#FDFDFD" sketch:type="MSShapeGroup" x="2225" y="384.5" width="48" height="109"></rect>
            <path d="M2036,462.5 L1997,462.5 L1997,525.5 L2036,525.5" id="461" stroke="#CEB1BE" stroke-width="2" fill="#FDFDFD" sketch:type="MSShapeGroup"></path>
            <rect id="2159" stroke="#CEB1BE" stroke-width="2" fill="#FDFDFD" sketch:type="MSShapeGroup" x="1773" y="439.5" width="48" height="114"></rect>
            <path d="M2057,554 L2057,553.5 C2057,536.7 2041.2,536.5 2041,536.5 L2040,536.5 L2040,554 L2036.5,554 L2036.5,383 L2093.5,383 L2093.5,554 L2057,554 L2057,554 Z" id="259" stroke="#CEB1BE" stroke-width="2" fill="#FDFDFD" sketch:type="MSShapeGroup"></path>
            <path d="M2156,554 L2156,536.5 L2155,536.5 C2154.8,536.5 2139,536.7 2139,553.5 L2139,554 L2098.5,554 L2098.5,383 L2158.5,383 L2158.5,554 L2156,554 L2156,554 Z" id="2129" stroke="#CEB1BE" stroke-width="2" fill="#FDFDFD" sketch:type="MSShapeGroup"></path>
            <rect id="2160" stroke="#A588A4" stroke-width="2" fill="#FDFDFD" sketch:type="MSShapeGroup" x="482.6" y="933.4" width="49" height="50"></rect>
            <rect id="2161" stroke="#A588A4" stroke-width="2" fill="#FDFDFD" sketch:type="MSShapeGroup" x="534.6" y="933.4" width="49" height="50"></rect>
            <rect id="274" stroke="#A588A4" stroke-width="2" fill="#FDFDFD" sketch:type="MSShapeGroup" x="482" y="1044.5" width="49" height="50"></rect>
            <rect id="2162" stroke="#A588A4" stroke-width="2" fill="#FDFDFD" sketch:type="MSShapeGroup" x="534" y="1044.5" width="49" height="50"></rect>
            <path d="M2325,1221 L2766.45324,1278.67205 L2766.45324,1381 L2325,1381 L2325,1221 Z" id="351" fill="#D0D0CF" sketch:type="MSShapeGroup"></path>
        </g>
    </g>
</svg>
